<svg xmlns="http://www.w3.org/2000/svg" viewBox="0 0 1920 1080"><defs><style>.a{fill:#635ef2;}.b{fill:#7164f2;}.c{fill:#7d6bf2;}</style></defs><path class="a" d="M643,1080H413V982H547V884H757V786H373V688H893V590H605V490h480V392h56V294H661V196H643V98h18V0h886V98h0v98h0v98h0v98h0v98h0V590h0v98h0v98h0v98h0v98h0v98H643Z" transform="translate(373)"/><path class="b" d="M517,1080H267V982H229V884h20V786h58V688H613V590H267V490H729V392H691V294H613V196H191V98H499V0H845V98H827v98h18v98h480v98h-56v98H789V590h288v98H557v98H941v98H731v98H597v98H517Z" transform="translate(191)"/><path class="c" d="M0,1080H0V982H0V884H0V786H0V688H0V590H0V490H0V392H0V294H0V196H0V98H0V0H692V98H384v98H806v98h78v98h38v98H460V590H806v98H500v98H442v98H422v98h38v98H0Z"/></svg>